<svg width="11" height="11" viewBox="0 0 11 11" fill="none" xmlns="http://www.w3.org/2000/svg">
<path d="M1.40228 3.91356V2.88479C1.40228 1.86015 2.23613 1.03302 3.26911 1.03302H4.30624" stroke="#4F4F4F" stroke-width="0.529078" stroke-linecap="round" stroke-linejoin="round"/>
<path d="M6.79535 1.03302H7.83248C8.86546 1.03302 9.69931 1.86015 9.69931 2.88479V3.91356" stroke="#4F4F4F" stroke-width="0.529078" stroke-linecap="round" stroke-linejoin="round"/>
<path d="M9.69931 6.7941V7.41136C9.69931 8.436 8.86546 9.26313 7.83248 9.26313H7.21021" stroke="#4F4F4F" stroke-width="0.529078" stroke-linecap="round" stroke-linejoin="round"/>
<path d="M4.30624 9.26314H3.26911C2.23613 9.26314 1.40228 8.43601 1.40228 7.41136V6.3826" stroke="#4F4F4F" stroke-width="0.529078" stroke-linecap="round" stroke-linejoin="round"/>
<path d="M4.9285 3.09056V3.91357C4.9285 4.32507 4.72108 4.53082 4.30623 4.53082H3.47652C3.06167 4.53082 2.85425 4.32507 2.85425 3.91357V3.09056C2.85425 2.67905 3.06167 2.4733 3.47652 2.4733H4.30623C4.72108 2.4733 4.9285 2.67905 4.9285 3.09056Z" stroke="#10B981" stroke-width="0.529078" stroke-linecap="round" stroke-linejoin="round"/>
<path d="M6.17303 3.91357V3.09056C6.17303 2.67905 6.38046 2.4733 6.79531 2.4733H7.62501C8.03986 2.4733 8.24729 2.67905 8.24729 3.09056V3.91357C8.24729 4.32507 8.03986 4.53082 7.62501 4.53082" stroke="#4F4F4F" stroke-width="0.529078" stroke-linecap="round" stroke-linejoin="round"/>
<path d="M3.47652 5.76535H4.30623C4.72108 5.76535 4.9285 5.9711 4.9285 6.38261V7.20562C4.9285 7.61713 4.72108 7.82288 4.30623 7.82288H3.47652C3.06167 7.82288 2.85425 7.61713 2.85425 7.20562" stroke="#4F4F4F" stroke-width="0.529078" stroke-linecap="round" stroke-linejoin="round"/>
<path d="M8.24729 6.38261V7.20562C8.24729 7.61713 8.03986 7.82288 7.62501 7.82288H6.79531C6.38046 7.82288 6.17303 7.61713 6.17303 7.20562V6.38261C6.17303 5.9711 6.38046 5.76535 6.79531 5.76535H7.62501C8.03986 5.76535 8.24729 5.9711 8.24729 6.38261Z" stroke="#10B981" stroke-width="0.529078" stroke-linecap="round" stroke-linejoin="round"/>
</svg>
