<svg width="11" height="11" viewBox="0 0 11 11" fill="none" xmlns="http://www.w3.org/2000/svg">
<path d="M1.58282 4.46333V3.43457C1.58282 2.40992 2.40995 1.58279 3.4346 1.58279H4.46336" stroke="#4F4F4F" stroke-width="0.529078" stroke-linecap="round" stroke-linejoin="round"/>
<path d="M6.93243 1.58279H7.9612C8.98585 1.58279 9.81297 2.40992 9.81297 3.43457V4.46333" stroke="#4F4F4F" stroke-width="0.529078" stroke-linecap="round" stroke-linejoin="round"/>
<path d="M9.81297 7.34384V7.9611C9.81297 8.98575 8.98584 9.81287 7.96119 9.81287H7.34393" stroke="#4F4F4F" stroke-width="0.529078" stroke-linecap="round" stroke-linejoin="round"/>
<path d="M4.46336 9.81288H3.4346C2.40995 9.81288 1.58282 8.98576 1.58282 7.96111V6.93234" stroke="#4F4F4F" stroke-width="0.529078" stroke-linecap="round" stroke-linejoin="round"/>
<path d="M7.75544 4.66909V6.72661C7.75544 7.54963 7.34393 7.96113 6.52092 7.96113H4.8749C4.05189 7.96113 3.64038 7.54963 3.64038 6.72661V4.66909C3.64038 3.84608 4.05189 3.43457 4.8749 3.43457H6.52092C7.34393 3.43457 7.75544 3.84608 7.75544 4.66909Z" stroke="#4F4F4F" stroke-width="0.529078" stroke-linecap="round" stroke-linejoin="round"/>
<path d="M8.5784 5.69785H2.81732" stroke="#10B981" stroke-width="0.529078" stroke-linecap="round" stroke-linejoin="round"/>
</svg>
