<svg width="11" height="11" viewBox="0 0 11 11" fill="none" xmlns="http://www.w3.org/2000/svg">
<path d="M6.21616 4.28604H3.72705" stroke="#10B981" stroke-width="0.529078" stroke-linecap="round" stroke-linejoin="round"/>
<path d="M9.94984 5.08416V5.91877C9.94984 6.1416 9.76731 6.3239 9.53499 6.332H8.72187C8.27383 6.332 7.86314 6.01194 7.82581 5.57439C7.80092 5.31915 7.90047 5.08011 8.07471 4.914C8.2282 4.76005 8.43978 4.67093 8.67209 4.67093H9.53499C9.76731 4.67903 9.94984 4.86133 9.94984 5.08416Z" stroke="#4F4F4F" stroke-width="0.529078" stroke-linecap="round" stroke-linejoin="round"/>
<path d="M8.07472 4.91402C7.90048 5.08013 7.80093 5.31916 7.82582 5.5744C7.86315 6.01196 8.27385 6.33202 8.72189 6.33202H9.535V6.91948C9.535 8.13491 8.7053 8.94519 7.46075 8.94519H3.72709C2.48253 8.94519 1.65283 8.13491 1.65283 6.91948V4.08348C1.65283 2.98149 2.33319 2.21172 3.39106 2.08208C3.49892 2.06587 3.61093 2.05777 3.72709 2.05777H7.46075C7.56861 2.05777 7.67232 2.06182 7.77189 2.07802C8.8422 2.19956 9.535 2.97339 9.535 4.08348V4.67094H8.67211C8.43979 4.67094 8.22821 4.76006 8.07472 4.91402Z" stroke="#4F4F4F" stroke-width="0.529078" stroke-linecap="round" stroke-linejoin="round"/>
</svg>
